<?xml version="1.0" encoding="iso-8859-1"?>
<!-- Generator: Adobe Illustrator 19.0.0, SVG Export Plug-In . SVG Version: 6.00 Build 0)  -->
<svg version="1.1" id="Capa_1" xmlns="http://www.w3.org/2000/svg" xmlns:xlink="http://www.w3.org/1999/xlink" x="0px" y="0px"
	 viewBox="0 0 512 512" style="enable-background:new 0 0 512 512;" xml:space="preserve">
<g>
	<g>
		<path d="M385.939,339.633l-52.477-0.001v-31.317c30.363-23.315,49.976-59.967,49.976-101.118v-38.896
			c8.891-45.142,5.023-78.404-11.514-98.861c-9.567-11.837-21.106-16.352-28.469-18.075c-0.002-6.518-0.004-19.262-0.004-43.571
			c0-4.14-3.355-7.496-7.496-7.496c-6.046,0-12.242-0.069-18.804-0.143C310.338,0.079,303.291,0,296.156,0
			C241.896,0,187.181,5.104,154.49,42.135c-24.623,27.892-33.114,69.275-25.958,126.512c0.006,0.051,0.023,0.098,0.03,0.147v38.402
			c0,41.153,19.613,77.805,49.977,101.119v31.318H126.06c-31.69,0-57.472,25.781-57.472,57.472c0,0.02,0.003,0.038,0.003,0.058
			v39.922c0,4.138,3.358,7.496,7.496,7.496c4.128,0,7.496-3.358,7.496-7.496v-39.98c0-0.013-0.002-0.025-0.002-0.038
			c0.021-23.406,19.068-42.441,42.478-42.441h57.707l27.475,18.317l26.973,26.973l-9.036,97.088h-75.628V447.58
			c0-4.14-3.356-7.496-7.496-7.496s-7.496,3.356-7.496,7.496v49.425H83.585v-29.933c0-4.138-3.368-7.496-7.496-7.496
			c-4.138,0-7.496,3.358-7.496,7.496v37.372c0,0.02-0.003,0.039-0.003,0.058c0,3.397,2.261,6.263,5.359,7.183
			c0.679,0.203,1.395,0.315,2.14,0.315c0.013,0,0.025-0.002,0.039-0.002h159.83c0.021,0,0.042,0.003,0.062,0.003
			c0.021,0,0.041-0.003,0.062-0.003h39.881c0.007,0,0.014,0.001,0.02,0.001c0.007,0,0.014-0.001,0.021-0.001h159.873
			c0.014,0,0.026,0.002,0.039,0.002c4.141,0,7.496-3.355,7.496-7.496V397.105C443.411,365.415,417.63,339.633,385.939,339.633z
			 M165.731,52.058c28.756-32.576,79.679-37.066,130.425-37.066c7.052,0,14.055,0.078,20.827,0.154
			c3.937,0.044,7.744,0.087,11.475,0.114c0.001,36.912,0.006,42.544,0.006,42.544c0.004,4.098,3.232,7.431,7.329,7.487
			c0.574,0.018,14.163,0.59,24.696,13.853c10.653,13.415,14.573,35.362,11.606,64.17l-11.292-22.582
			c-1.651-3.303-5.464-4.91-8.982-3.789c-0.673,0.215-67.789,21.461-106.786,21.461c-37.947,0-72.104-20.512-72.438-20.716
			c-3.297-2.017-7.587-1.192-9.906,1.898l-21.104,28.14C138.866,104.889,146.82,73.48,165.731,52.058z M143.556,207.197V170.1
			l27.214-36.288c12.214,6.373,41.496,19.588,74.269,19.588c34.587,0,87.258-14.888,105.197-20.279l18.21,36.418v37.66
			c0,61.495-49.624,111.61-110.929,112.425c-0.49-0.101-0.997-0.153-1.516-0.153c-0.52,0-1.025,0.053-1.516,0.153
			C193.178,318.808,143.556,268.692,143.556,207.197z M318.47,318.238v24.879l-23.886,15.925l-31.087-7.771v-16.862
			C283.379,333.25,302.048,327.513,318.47,318.238z M193.532,343.116v-24.879c16.421,9.276,35.091,15.013,54.972,16.171v16.862
			l-31.086,7.771L193.532,343.116z M230.682,371.18L256,364.851l25.318,6.329l-18.427,18.429h-13.78L230.682,371.18z
			 M244.236,497.004l8.601-92.403h6.328l8.6,92.403H244.236z M428.418,497.004H282.822l-9.037-97.088l26.971-26.972l27.477-18.319
			l57.704,0.001c23.424,0,42.48,19.056,42.48,42.479V497.004z"/>
	</g>
</g>
<g>
	<g>
		<path d="M395.932,410.099h-22.489v-12.494c0-4.141-3.355-7.496-7.496-7.496h-29.985c-4.141,0-7.496,3.355-7.496,7.496v12.494
			h-22.489c-4.141,0-7.496,3.355-7.496,7.496v49.976c0,4.141,3.355,7.496,7.496,7.496h89.956c4.141,0,7.496-3.355,7.496-7.496
			v-49.976C403.428,413.454,400.073,410.099,395.932,410.099z M343.458,405.101h14.993v4.997h-14.993V405.101z M388.436,460.074
			h-74.963v-34.983h22.489h29.985h22.489V460.074z"/>
	</g>
</g>
<g>
</g>
<g>
</g>
<g>
</g>
<g>
</g>
<g>
</g>
<g>
</g>
<g>
</g>
<g>
</g>
<g>
</g>
<g>
</g>
<g>
</g>
<g>
</g>
<g>
</g>
<g>
</g>
<g>
</g>
</svg>
